<?xml version="1.0" standalone="no"?>
<!DOCTYPE svg PUBLIC "-//W3C//DTD SVG 20010904//EN"
 "http://www.w3.org/TR/2001/REC-SVG-20010904/DTD/svg10.dtd">
<svg version="1.0" xmlns="http://www.w3.org/2000/svg"
 width="1200.000000pt" height="800.000000pt" viewBox="0 0 1200.000000 800.000000"
 preserveAspectRatio="xMidYMid meet">

<g transform="translate(0.000000,800.000000) scale(0.100000,-0.100000)"
fill="#000000" stroke="none">
<path d="M5836 6213 c-356 -48 -707 -199 -981 -423 -105 -86 -272 -264 -345
-368 -159 -226 -250 -439 -312 -729 -20 -95 -23 -136 -22 -338 0 -211 2 -240
27 -356 160 -750 740 -1321 1501 -1474 432 -87 868 -32 1261 159 538 261 908
733 1032 1315 25 116 27 145 27 356 1 247 -9 321 -70 531 -114 394 -399 774
-764 1018 -383 256 -888 372 -1354 309z m605 -22 c785 -142 1383 -714 1546
-1480 25 -115 27 -146 28 -351 0 -197 -3 -239 -23 -340 -105 -518 -413 -955
-874 -1242 -326 -203 -773 -310 -1154 -279 -481 40 -884 219 -1218 541 -309
298 -493 658 -552 1079 -23 167 -14 432 20 597 103 490 399 921 821 1192 241
156 551 266 845 302 127 15 429 5 561 -19z"/>
<path d="M5953 6083 c-9 -3 -13 -26 -13 -64 l0 -59 39 0 c22 0 43 5 46 10 4 6
-8 10 -29 10 -29 0 -36 4 -36 20 0 16 7 20 30 20 17 0 30 5 30 10 0 6 -13 10
-30 10 -20 0 -30 5 -30 15 0 10 10 15 30 15 17 0 30 5 30 10 0 10 -45 12 -67
3z"/>
<path d="M6050 6030 c0 -33 4 -60 10 -60 6 0 10 21 10 48 l1 47 25 -47 c35
-68 54 -64 54 12 0 33 -4 60 -10 60 -5 0 -10 -21 -10 -47 l-1 -48 -25 48 c-35
67 -54 63 -54 -13z"/>
<path d="M5838 6073 c-16 -2 -28 -9 -28 -15 0 -6 9 -8 19 -5 15 3 20 -2 25
-25 3 -17 6 -41 6 -54 0 -13 5 -24 11 -24 8 0 10 17 5 55 -6 51 -5 55 14 55
11 0 20 5 20 10 0 10 -20 11 -72 3z"/>
<path d="M6190 6025 c-12 -31 -20 -58 -17 -62 4 -3 9 2 13 11 8 20 60 22 68 1
3 -8 10 -15 15 -15 15 0 -25 115 -41 118 -10 2 -23 -16 -38 -53z m50 -2 c0 -7
-7 -13 -15 -13 -16 0 -19 9 -9 35 5 13 8 14 15 3 5 -7 9 -19 9 -25z"/>
<path d="M6318 6059 c-12 -7 -18 -22 -18 -49 0 -46 33 -76 74 -66 26 6 42 46
23 58 -17 11 -37 10 -37 -2 0 -5 5 -10 10 -10 6 0 10 -7 10 -15 0 -22 -37 -18
-53 6 -29 41 11 92 54 69 24 -13 41 -4 19 10 -20 13 -61 12 -82 -1z"/>
<path d="M6447 5995 c-27 -39 -33 -55 -22 -55 8 0 15 5 15 10 0 6 11 10 25 10
18 0 29 -8 37 -27 15 -38 21 -12 11 56 -5 30 -13 56 -19 58 -6 2 -27 -21 -47
-52z m43 0 c0 -17 -4 -23 -15 -19 -11 5 -12 11 -4 25 13 26 19 24 19 -6z"/>
<path d="M5645 5990 l6 -45 -28 33 c-30 35 -68 44 -59 15 2 -10 10 -37 17 -60
7 -24 16 -43 21 -43 5 0 7 8 4 18 -3 9 -8 31 -12 47 l-7 30 42 -39 c22 -22 44
-37 47 -33 8 8 -15 98 -29 112 -6 6 -7 -6 -2 -35z"/>
<path d="M6694 5975 c-4 -11 -13 -35 -20 -54 -16 -38 -17 -51 -6 -51 4 0 15
19 24 43 l17 42 0 -32 c1 -36 20 -44 41 -18 20 24 23 11 6 -29 -11 -27 -12
-36 -3 -36 15 0 51 96 41 111 -4 7 -17 0 -35 -17 l-29 -28 0 25 c0 14 -6 34
-14 45 -14 19 -15 19 -22 -1z"/>
<path d="M5470 5914 c0 -41 4 -63 10 -59 6 3 10 12 10 20 0 19 38 29 56 14 31
-26 24 2 -12 45 -53 64 -64 60 -64 -20z m38 13 c2 -9 -3 -17 -10 -17 -8 0 -14
9 -15 21 -2 24 20 20 25 -4z"/>
<path d="M5394 5928 c4 -13 10 -32 13 -43 6 -18 2 -17 -30 8 -40 30 -57 34
-57 12 0 -20 42 -105 52 -105 11 0 9 11 -7 40 -26 45 -17 53 24 21 35 -28 61
-39 61 -26 0 2 -11 29 -24 60 -25 55 -45 76 -32 33z"/>
<path d="M6823 5876 c-26 -24 -45 -48 -41 -52 4 -4 14 -1 22 5 23 19 56 4 56
-25 0 -38 17 -28 24 14 9 54 7 90 -4 97 -5 3 -31 -14 -57 -39z m45 -21 c-2
-10 -7 -12 -17 -5 -13 7 -13 11 -1 25 15 18 24 8 18 -20z"/>
<path d="M5262 5883 c2 -5 12 -24 22 -45 38 -74 -12 -94 -52 -20 -13 23 -28
40 -33 36 -11 -6 33 -84 55 -98 17 -12 66 17 66 40 0 22 -39 94 -51 94 -6 0
-9 -3 -7 -7z"/>
<path d="M6925 5825 c-14 -25 -25 -51 -22 -58 2 -6 15 9 30 33 l27 45 0 -57
c0 -31 4 -59 9 -63 11 -6 72 101 63 110 -3 3 -16 -11 -29 -32 l-23 -38 0 53
c0 67 -18 69 -55 7z"/>
<path d="M5826 5819 c-554 -97 -1017 -490 -1185 -1007 -55 -168 -66 -240 -66
-452 0 -219 12 -302 72 -474 76 -220 181 -385 358 -561 126 -126 246 -215 384
-285 444 -222 978 -223 1418 -2 277 140 535 396 671 668 51 102 104 253 128
369 27 127 27 443 0 565 -134 616 -614 1073 -1240 1180 -156 27 -386 26 -540
-1z m609 -24 c147 -33 231 -63 358 -126 252 -125 462 -315 612 -554 l55 -88
-128 -94 -127 -93 -3 80 -3 80 -39 0 -40 0 0 45 0 46 -77 -3 -78 -3 -3 -85 -3
-85 -70 -54 -69 -54 0 -68 0 -69 -35 0 -35 0 0 240 0 240 -100 0 -100 0 0 -90
0 -90 -40 0 -40 0 0 60 0 60 -60 0 -60 0 0 70 0 71 -87 -3 -88 -3 -2 -117 c-2
-109 0 -118 17 -118 29 0 36 -22 12 -38 l-22 -14 27 -32 c16 -20 33 -30 46
-28 11 2 35 1 54 -3 l35 -6 -7 -45 c-4 -30 -3 -44 5 -44 6 0 26 -11 44 -25 18
-14 36 -22 39 -18 15 14 6 43 -20 62 -14 12 -24 22 -22 24 2 1 18 12 35 24
l31 22 32 -29 c34 -32 38 -57 16 -100 l-15 -29 50 -7 c40 -5 50 -10 50 -26 0
-30 -59 -96 -89 -100 -21 -2 -33 -17 -69 -86 l-44 -84 75 -71 c78 -76 104
-124 94 -176 -5 -24 3 -37 60 -95 63 -65 65 -69 60 -109 -2 -23 -8 -50 -12
-61 -8 -17 -6 -17 23 -2 30 15 30 15 54 -17 13 -17 34 -49 47 -69 l22 -37 -56
-75 c-60 -82 -62 -84 -180 -133 -44 -19 -66 -31 -50 -28 17 3 59 19 94 36 73
33 88 35 120 13 20 -15 23 -23 18 -59 l-6 -42 58 -6 c109 -9 189 -63 128 -86
-39 -15 -51 -36 -34 -63 8 -13 23 -45 32 -71 25 -66 11 -78 -46 -40 -42 27
-46 28 -155 25 -120 -3 -144 5 -144 50 0 17 -4 19 -27 13 -94 -23 -224 -45
-330 -56 l-123 -12 0 -180 0 -180 -92 8 c-507 38 -928 281 -1192 685 -140 214
-218 442 -233 683 l-6 107 616 0 616 0 20 21 c23 25 25 16 -46 142 -40 69 -48
77 -75 77 -37 0 -86 46 -94 90 -7 33 -78 100 -107 100 -9 0 -50 -11 -92 -24
-41 -13 -75 -20 -75 -16 0 5 13 43 30 86 32 85 33 80 -29 163 -23 30 -41 59
-41 63 0 5 39 8 88 7 l87 -2 54 69 c29 38 56 69 59 69 4 0 16 -35 28 -77 13
-43 25 -82 28 -87 4 -5 42 -21 86 -36 44 -15 80 -30 80 -33 0 -4 -24 -23 -53
-42 -42 -28 -48 -35 -32 -38 34 -7 43 -21 50 -82 l7 -59 23 15 c13 9 29 13 35
9 13 -8 13 -66 0 -100 -8 -21 -3 -38 27 -100 35 -71 38 -74 50 -52 18 33 17
46 -27 178 -22 67 -40 125 -40 129 0 4 16 12 36 18 34 10 36 10 48 -20 l13
-30 7 42 c4 26 17 53 34 70 26 26 27 28 10 39 -31 19 -22 41 16 41 19 0 37 4
40 8 3 5 -4 28 -16 51 -17 35 -19 47 -9 67 6 14 11 69 11 123 0 54 5 123 11
152 6 30 12 88 13 129 2 47 9 88 19 109 12 24 17 59 17 119 l0 85 108 -6 c59
-3 161 -17 227 -32z m-1125 -529 c0 -2 -26 -13 -57 -24 -163 -60 -271 -258
-242 -442 21 -134 105 -256 212 -305 28 -14 58 -25 65 -25 6 0 12 -4 12 -10 0
-15 -88 -12 -155 6 -120 31 -215 110 -268 222 -30 62 -32 75 -32 172 0 97 2
110 31 170 72 153 202 238 367 239 37 1 67 -1 67 -3z m1070 -255 c0 -26 -3
-29 -27 -27 -22 2 -29 9 -31 30 -3 23 0 26 27 26 28 0 31 -3 31 -29z m270 -16
c0 -31 -3 -35 -25 -35 -22 0 -25 4 -25 35 0 31 3 35 25 35 22 0 25 -4 25 -35z
m50 -180 c0 -54 0 -55 -30 -55 -30 0 -30 1 -30 55 0 54 0 55 30 55 30 0 30 -1
30 -55z m384 -51 c27 -10 20 -44 -9 -44 -18 0 -25 5 -25 18 0 29 9 36 34 26z
m243 -81 c-2 -27 -5 -28 -52 -28 -47 0 -50 2 -53 28 -3 27 -2 27 52 27 54 0
55 -1 53 -27z m-297 -78 l0 -35 -50 0 -50 0 0 35 0 35 50 0 50 0 0 -35z"/>
<path d="M6085 5557 c-4 -30 -4 -64 -1 -75 4 -10 1 -32 -5 -48 -10 -24 -28
-237 -29 -348 -1 -53 46 -79 84 -47 10 8 14 21 11 32 -4 11 -2 19 5 19 7 0 8
6 0 19 -5 11 -10 68 -10 128 -1 59 -6 128 -11 153 -6 25 -11 80 -12 122 -3 97
-22 125 -32 45z"/>
<path d="M7063 5364 c-15 -24 -15 -29 -2 -53 28 -49 99 -32 99 24 0 55 -67 75
-97 29z"/>
<path d="M7007 5233 c-13 -12 -7 -52 9 -61 38 -21 80 21 54 53 -13 15 -51 20
-63 8z"/>
<path d="M6087 4894 c-4 -4 -7 -36 -7 -71 0 -57 2 -63 20 -63 19 0 21 5 18 67
-3 61 -14 84 -31 67z"/>
<path d="M6040 4826 c0 -8 5 -18 10 -21 6 -3 10 3 10 14 0 12 -4 21 -10 21 -5
0 -10 -6 -10 -14z"/>
<path d="M5665 4750 c3 -5 8 -10 11 -10 2 0 4 5 4 10 0 6 -5 10 -11 10 -5 0
-7 -4 -4 -10z"/>
<path d="M5960 4752 c0 -6 5 -23 10 -38 8 -20 14 -24 22 -16 8 8 5 18 -11 38
-11 15 -21 22 -21 16z"/>
<path d="M6338 4712 c-4 -36 0 -52 14 -68 18 -20 18 -22 -21 -105 -74 -161
-72 -151 -36 -175 l31 -21 63 124 c47 92 67 123 81 123 25 0 90 57 90 80 0 14
-11 18 -56 23 -34 4 -75 17 -109 36 l-53 30 -4 -47z"/>
<path d="M5780 4733 c-21 -10 -59 -15 -97 -14 l-62 2 10 -29 c14 -42 50 -71
88 -75 32 -2 38 -10 107 -131 41 -71 74 -134 74 -140 0 -6 10 0 22 12 l23 22
-68 135 c-54 109 -65 140 -57 155 12 22 14 80 3 79 -5 0 -24 -8 -43 -16z"/>
<path d="M6200 4719 c0 -5 5 -7 10 -4 6 3 10 8 10 11 0 2 -4 4 -10 4 -5 0 -10
-5 -10 -11z"/>
<path d="M6302 4660 c-10 -46 -11 -65 -3 -68 6 -2 11 -10 11 -18 0 -25 15 -15
28 18 9 26 9 35 -2 47 -8 9 -16 32 -18 51 -3 31 -5 27 -16 -30z"/>
<path d="M6080 4615 c0 -47 2 -85 4 -85 30 0 36 16 36 91 0 72 -2 79 -20 79
-18 0 -20 -7 -20 -85z"/>
<path d="M6162 4613 l-34 -33 31 0 c33 0 45 15 39 47 -3 15 -8 13 -36 -14z"/>
<path d="M6009 4603 c-13 -17 -13 -17 6 -3 11 8 22 16 24 17 2 2 0 3 -6 3 -6
0 -17 -8 -24 -17z"/>
<path d="M6152 4487 c-17 -18 -22 -36 -22 -75 0 -53 12 -67 28 -34 10 18 26
132 19 132 -2 0 -13 -10 -25 -23z"/>
<path d="M6093 4473 c-9 -3 -13 -33 -13 -100 0 -95 0 -96 20 -78 17 15 20 31
20 102 0 45 -3 83 -7 82 -5 0 -14 -3 -20 -6z"/>
<path d="M6251 4424 c0 -11 3 -14 6 -6 3 7 2 16 -1 19 -3 4 -6 -2 -5 -13z"/>
<path d="M6052 4390 c0 -14 2 -19 5 -12 2 6 2 18 0 25 -3 6 -5 1 -5 -13z"/>
<path d="M5939 4324 c-11 -13 -9 -23 11 -60 45 -81 79 -58 40 27 -25 53 -31
57 -51 33z"/>
<path d="M6225 4303 c-13 -32 -14 -39 -1 -51 17 -18 52 -8 67 20 9 16 6 24
-12 44 -30 32 -36 31 -54 -13z"/>
<path d="M6097 4244 c-12 -16 -17 -37 -15 -63 3 -36 5 -38 21 -26 14 10 17 24
15 63 l-3 50 -18 -24z"/>
<path d="M6375 4223 c-4 -15 -13 -43 -21 -62 l-15 -34 37 6 c38 6 74 31 74 52
0 11 -33 45 -57 59 -8 4 -14 -3 -18 -21z"/>
<path d="M6213 4217 c-2 -4 3 -19 12 -33 16 -24 18 -25 35 -9 10 9 20 24 23
34 3 14 -2 17 -30 17 -19 -1 -37 -5 -40 -9z"/>
<path d="M5336 4157 c-19 -14 -25 -62 -10 -77 49 -45 122 22 75 69 -24 24 -40
26 -65 8z"/>
<path d="M5038 4125 c-10 -22 -9 -29 9 -47 40 -40 99 4 72 54 -15 29 -67 24
-81 -7z"/>
<path d="M5695 4109 c-11 -11 -44 -42 -72 -68 -49 -44 -53 -50 -53 -92 1 -71
55 -116 91 -73 11 14 14 11 24 -22 12 -43 36 -55 63 -31 15 14 19 12 42 -24
42 -67 108 -43 117 44 7 56 19 57 48 4 26 -47 38 -47 29 1 -9 51 -45 119 -88
167 l-36 40 1 -45 c2 -93 -2 -145 -11 -160 -18 -27 -30 9 -30 88 0 89 -19 97
-51 22 -27 -64 -42 -64 -35 0 7 65 -8 73 -51 27 -35 -39 -63 -48 -63 -21 0 27
20 54 60 79 39 24 59 60 43 76 -4 4 -17 -1 -28 -12z"/>
<path d="M6080 4089 c0 -14 5 -19 17 -17 26 5 29 38 4 38 -15 0 -21 -6 -21
-21z"/>
<path d="M6510 4083 c0 -36 8 -47 46 -66 54 -28 58 -40 30 -94 l-25 -48 -1 51
c0 77 -54 128 -94 89 -36 -36 -26 -98 19 -115 14 -5 25 -13 25 -18 0 -20 -33
-52 -55 -52 -58 0 -97 149 -44 168 17 7 17 9 -6 37 l-25 30 -20 -24 c-11 -13
-20 -29 -20 -36 0 -8 -20 -14 -58 -17 -39 -3 -69 -11 -90 -27 -24 -17 -32 -19
-32 -8 0 8 7 21 16 28 15 12 14 15 -6 31 -29 23 -47 23 -55 -2 -9 -27 -20 -25
-43 7 l-19 26 -19 -28 c-15 -23 -19 -47 -19 -120 1 -49 -3 -93 -9 -97 -5 -3
-24 -4 -43 -2 -37 5 -42 -8 -17 -44 13 -19 23 -22 61 -20 42 3 46 6 65 46 11
23 24 42 28 42 4 0 10 -14 14 -32 3 -18 13 -43 22 -56 15 -23 16 -23 42 -6 15
10 41 17 59 16 26 -2 35 3 52 32 19 30 28 35 68 38 38 3 51 -1 69 -19 19 -19
27 -21 50 -13 14 6 35 22 46 35 14 17 29 25 52 25 28 0 35 5 54 45 35 73 30
98 -35 166 -62 65 -83 73 -83 32z m-412 -160 c1 -44 -10 -73 -29 -73 -8 0 -1
62 12 98 12 33 16 27 17 -25z m402 37 c0 -5 -4 -10 -10 -10 -5 0 -10 5 -10 10
0 6 5 10 10 10 6 0 10 -4 10 -10z m-146 -64 c10 -37 6 -46 -19 -46 -14 0 -33
-9 -42 -20 -25 -29 -33 -25 -26 13 10 65 -60 78 -72 13 -4 -18 -5 -41 -3 -51
5 -29 -21 -29 -32 0 -19 49 -12 72 26 96 69 42 156 40 168 -5z m-114 -57 c0
-5 -4 -9 -10 -9 -5 0 -10 7 -10 16 0 8 5 12 10 9 6 -3 10 -10 10 -16z"/>
<path d="M6268 3914 c-4 -3 -1 -13 7 -20 7 -8 15 -18 17 -24 3 -10 48 -2 48 9
-1 23 -57 51 -72 35z"/>
<path d="M5740 4079 c0 -18 8 -29 25 -37 32 -15 62 -15 70 -2 3 6 0 10 -8 10
-20 0 -68 26 -78 42 -6 9 -9 5 -9 -13z"/>
<path d="M4980 4010 c-24 -33 -44 -60 -44 -60 -1 0 -17 6 -36 13 -29 10 -35
17 -35 42 0 26 -4 30 -31 33 -24 2 -33 -1 -36 -16 -3 -11 -1 -27 4 -36 6 -11
5 -16 -5 -16 -16 0 -77 -61 -77 -78 0 -17 37 -15 44 3 3 8 11 15 17 15 9 0 10
-29 4 -110 -6 -94 -4 -110 8 -110 20 0 27 22 27 86 0 30 4 54 9 54 9 0 16 -37
23 -113 2 -15 8 -27 13 -27 6 0 11 47 13 115 1 63 7 115 12 115 5 0 19 -4 33
-9 29 -11 39 -6 64 36 l19 32 1 -135 c0 -137 7 -162 37 -151 12 5 16 21 16 62
0 48 3 55 20 55 16 0 19 -8 22 -57 3 -50 6 -58 23 -58 18 0 21 9 28 84 4 47 4
113 -1 147 -9 67 -2 74 32 29 26 -34 44 -31 88 12 l38 37 0 -157 c0 -150 1
-157 20 -157 19 0 20 7 20 90 0 73 3 90 15 90 12 0 15 -17 15 -90 0 -83 1 -90
20 -90 19 0 20 7 20 150 0 83 4 150 8 150 5 0 21 -13 37 -30 30 -31 65 -40 65
-16 0 24 -112 127 -130 120 -19 -9 -51 -9 -71 0 -11 5 -29 -6 -57 -34 -23 -22
-45 -40 -49 -40 -4 0 -27 19 -50 42 -33 33 -46 39 -55 30 -15 -15 -64 -16 -73
-2 -11 18 -21 11 -65 -50z m-133 -46 c-3 -3 -12 -4 -19 -1 -8 3 -5 6 6 6 11 1
17 -2 13 -5z"/>
<path d="M6446 4055 c-6 -17 9 -29 24 -20 14 9 12 22 -4 28 -8 3 -17 -1 -20
-8z"/>
<path d="M6218 4037 c-56 -22 -25 -38 56 -30 62 6 76 27 25 37 -39 7 -47 7
-81 -7z"/>
<path d="M6404 3956 c-7 -29 19 -94 41 -103 9 -3 24 1 33 11 10 10 12 16 4 16
-22 0 -52 40 -52 70 0 36 -17 40 -26 6z"/>
<path d="M6365 3790 c-4 -6 -15 -8 -25 -5 -22 7 -37 -12 -21 -28 9 -9 14 -8
20 2 5 8 16 11 25 8 19 -7 32 11 18 25 -6 6 -12 6 -17 -2z"/>
<path d="M5491 3763 c47 -105 77 -135 183 -183 261 -119 597 -115 906 11 41
17 82 36 91 42 18 14 102 127 94 127 -3 0 -29 -14 -59 -30 -201 -114 -537
-174 -758 -136 -137 23 -322 91 -422 153 -21 14 -37 21 -35 16z"/>
<path d="M5683 3473 c-21 -7 -15 -39 10 -56 18 -13 19 -16 5 -16 -10 -1 -18 4
-18 9 0 6 -7 10 -15 10 -13 0 -14 -4 -5 -20 13 -25 58 -27 67 -3 4 10 -2 23
-17 35 -12 10 -20 22 -16 26 4 4 14 -1 21 -11 7 -10 15 -14 18 -10 12 19 -25
45 -50 36z"/>
<path d="M6513 3470 c-21 -9 -22 -11 -9 -46 7 -21 19 -40 26 -42 9 -3 11 1 7
11 -8 22 13 34 25 13 17 -30 26 -7 13 31 -14 41 -27 47 -62 33z m37 -19 c0 -5
-7 -11 -15 -15 -15 -5 -20 5 -8 17 9 10 23 9 23 -2z"/>
<path d="M5780 3409 c-9 -33 -9 -44 2 -50 18 -12 58 -11 58 1 0 6 -9 10 -20
10 -11 0 -20 5 -20 11 0 6 9 9 20 6 27 -7 25 11 -2 23 -22 8 -22 9 5 9 27 1
40 21 13 21 -8 0 -21 3 -30 6 -11 4 -18 -5 -26 -37z"/>
<path d="M6380 3421 c-7 -13 -7 -28 0 -46 8 -22 15 -26 42 -23 28 2 34 8 36
31 2 16 -2 35 -9 43 -17 20 -56 17 -69 -5z m58 -29 c3 -17 -2 -22 -17 -22 -16
0 -21 6 -21 26 0 33 33 30 38 -4z"/>
<path d="M5896 3398 c-13 -52 -8 -68 24 -68 17 0 30 5 30 10 0 6 -9 10 -19 10
-17 0 -19 5 -14 35 6 39 -11 49 -21 13z"/>
<path d="M6257 3399 c-28 -39 5 -84 51 -72 30 7 31 53 2 53 -11 0 -20 -4 -20
-10 0 -5 5 -10 12 -10 9 0 9 -3 0 -12 -16 -16 -35 3 -30 28 3 14 11 18 33 16
25 -3 27 -1 16 12 -19 22 -47 20 -64 -5z"/>
<path d="M6015 3374 c-8 -20 -15 -40 -15 -45 0 -14 18 -11 23 4 3 9 9 9 27 -1
12 -7 23 -12 25 -10 9 8 -21 88 -32 88 -7 0 -20 -16 -28 -36z"/>
<path d="M6129 3406 c-3 -3 -3 -23 -1 -45 4 -43 22 -58 22 -19 l0 22 16 -22
c23 -34 34 -27 34 23 0 25 -4 45 -10 45 -5 0 -10 -12 -10 -27 l-1 -28 -15 28
c-14 25 -25 33 -35 23z"/>
<path d="M5110 5800 c-11 -11 -20 -33 -20 -48 0 -56 64 -81 110 -44 19 16 21
22 11 40 -14 26 -33 28 -51 7 -11 -13 -10 -15 6 -13 27 4 32 -12 9 -28 -18
-12 -24 -11 -43 2 -37 26 -24 84 20 84 10 0 18 5 18 10 0 17 -39 11 -60 -10z"/>
<path d="M7047 5771 c-41 -62 -32 -101 23 -101 18 0 33 12 53 39 29 42 32 51
18 51 -5 0 -19 -16 -31 -35 -23 -36 -56 -47 -66 -20 -3 8 4 30 16 50 31 50 20
65 -13 16z"/>
<path d="M5027 5744 c-4 -4 5 -20 19 -37 14 -16 23 -32 20 -34 -2 -2 -23 5
-45 17 -36 18 -42 18 -47 5 -4 -8 8 -32 26 -55 39 -49 63 -54 26 -6 -14 19
-26 37 -26 39 0 3 22 -4 50 -16 27 -11 52 -18 56 -14 4 3 -10 29 -31 57 -40
54 -39 53 -48 44z"/>
<path d="M7160 5705 c-11 -13 -9 -21 9 -46 14 -19 19 -35 14 -40 -14 -14 -41
-1 -49 23 -4 14 -9 17 -17 9 -12 -12 4 -36 35 -52 21 -11 58 4 58 25 0 7 -9
25 -20 39 -25 31 -25 37 -1 37 11 0 26 -9 34 -20 8 -11 17 -17 20 -13 10 10
-34 53 -54 53 -9 0 -22 -7 -29 -15z"/>
<path d="M7273 5642 c3 -10 -45 -68 -62 -73 -9 -3 -6 -10 8 -23 21 -19 21 -19
21 1 0 12 15 34 34 51 25 22 31 33 23 41 -13 13 -28 15 -24 3z"/>
<path d="M4896 5631 c-8 -12 34 -121 46 -121 4 0 6 11 2 24 -7 29 20 48 56 39
38 -10 15 14 -40 42 -56 28 -57 28 -64 16z m49 -39 c0 -18 -20 -15 -23 4 -3
10 1 15 10 12 7 -3 13 -10 13 -16z"/>
<path d="M7303 5552 c-55 -27 -70 -47 -30 -37 29 8 51 -16 42 -45 -3 -11 -2
-20 4 -20 12 0 63 109 55 121 -7 12 -12 11 -71 -19z m47 -9 c0 -5 -5 -15 -10
-23 -7 -12 -12 -12 -22 -2 -10 10 -10 15 2 22 18 12 30 13 30 3z"/>
<path d="M4803 5546 l-28 -25 40 -40 c44 -46 55 -49 78 -23 26 29 22 70 -7 78
-14 3 -27 12 -30 20 -8 20 -21 17 -53 -10z m37 -31 c-9 -11 -16 -13 -23 -6 -7
7 -6 15 3 26 9 11 16 13 23 6 7 -7 6 -15 -3 -26z m55 -6 c4 -5 -1 -19 -11 -30
-13 -15 -20 -16 -31 -8 -11 10 -11 15 3 30 19 22 30 24 39 8z"/>
<path d="M4737 5474 c-3 -4 1 -20 9 -36 l15 -30 -38 4 c-49 4 -49 -11 1 -51
51 -40 71 -40 26 1 l-34 31 33 -6 c35 -7 36 -4 15 48 -7 17 -3 16 25 -7 51
-43 61 -32 12 12 -44 41 -53 45 -64 34z"/>
<path d="M7480 5385 c-10 -12 -10 -21 -1 -41 15 -33 14 -44 -4 -44 -9 0 -21
11 -27 25 -6 14 -15 25 -20 25 -22 0 12 -60 38 -66 42 -11 51 9 33 76 -6 24
25 17 36 -7 11 -25 25 -31 25 -10 0 22 -30 57 -49 57 -10 0 -24 -7 -31 -15z"/>
<path d="M4629 5339 l-23 -32 29 -23 c58 -46 72 -50 94 -23 11 13 20 31 20 39
0 10 -7 6 -22 -12 -17 -21 -26 -25 -40 -17 -16 10 -16 12 3 40 25 34 16 38
-17 7 -28 -26 -41 -17 -23 17 20 38 5 41 -21 4z"/>
<path d="M7533 5272 c-24 -15 -43 -29 -43 -32 0 -15 44 -73 47 -63 2 6 -3 23
-12 36 -15 23 -14 25 2 31 12 5 24 0 36 -15 23 -29 34 -17 13 15 -24 38 2 46
31 10 26 -33 32 -16 7 21 -20 31 -29 31 -81 -3z"/>
<path d="M4571 5244 c-12 -15 -21 -29 -21 -33 0 -11 101 -63 108 -56 4 3 -1
11 -10 16 -13 7 -16 17 -11 41 5 23 2 34 -12 45 -26 18 -31 17 -54 -13z m47
-22 c2 -14 -2 -22 -12 -22 -19 0 -29 17 -22 36 8 22 30 12 34 -14z"/>
<path d="M7605 5184 c-22 -13 -44 -25 -50 -27 -17 -7 36 -97 56 -97 24 0 45
-38 30 -53 -6 -6 -11 -16 -11 -21 0 -6 20 10 45 34 63 62 60 73 -18 65 l-62
-7 -12 31 c-12 34 -10 37 45 65 17 9 32 21 32 26 0 14 -10 11 -55 -16z m83
-130 c-9 -9 -21 -13 -27 -10 -20 13 -11 26 16 26 25 0 26 -1 11 -16z"/>
<path d="M4452 5020 c-19 -47 -15 -71 6 -33 9 15 13 15 57 -1 25 -10 49 -15
52 -12 8 8 5 10 -42 29 -33 13 -40 20 -38 41 3 41 -12 30 -35 -24z"/>
<path d="M7693 4979 c-29 -11 -53 -25 -53 -30 0 -12 1 -12 45 7 20 8 39 14 41
11 2 -2 -10 -19 -26 -38 -25 -30 -38 -59 -26 -59 16 0 116 44 116 51 0 12 -5
11 -47 -6 -20 -8 -38 -14 -39 -12 -2 2 10 16 26 32 27 26 41 66 23 64 -5 0
-32 -9 -60 -20z"/>
<path d="M4410 4918 c1 -7 21 -29 45 -48 52 -40 78 -52 53 -24 -21 24 -13 64
13 64 10 0 21 5 24 10 4 6 -20 10 -64 10 -50 0 -71 -4 -71 -12z m74 -23 c-5
-11 -11 -12 -25 -4 -26 13 -24 19 6 19 17 0 23 -4 19 -15z"/>
<path d="M7718 4848 c-23 -18 -27 -68 -9 -96 12 -19 61 -5 61 18 0 11 -4 22
-10 25 -5 3 -10 -3 -10 -14 0 -30 -28 -26 -36 4 -8 33 11 55 47 55 30 0 55
-30 45 -55 -3 -8 -1 -17 3 -20 16 -9 19 32 5 64 -11 26 -18 31 -47 31 -18 0
-40 -6 -49 -12z"/>
<path d="M4380 4819 c-7 -11 -9 -32 -6 -45 10 -36 51 -33 71 7 13 24 19 28 30
19 14 -11 11 -34 -8 -57 -7 -9 -5 -13 6 -13 11 0 18 13 23 36 12 63 -44 88
-66 29 -5 -14 -16 -25 -25 -25 -17 0 -21 35 -5 45 13 8 13 25 0 25 -5 0 -14
-9 -20 -21z"/>
<path d="M7745 4706 c-26 -26 -25 -61 3 -83 39 -31 105 1 105 52 0 55 -65 73
-108 31z m85 -11 c17 -21 3 -54 -27 -61 -48 -12 -80 28 -48 60 20 20 59 21 75
1z"/>
<path d="M4350 4711 c0 -5 20 -13 45 -16 53 -8 74 -27 55 -50 -10 -12 -24 -14
-63 -9 -33 5 -48 4 -44 -3 11 -17 96 -26 113 -12 20 16 18 66 -3 77 -29 16
-103 25 -103 13z"/>
<path d="M4337 4583 c-4 -3 -7 -19 -7 -34 0 -31 8 -35 83 -42 39 -3 51 7 17
16 -11 3 -20 14 -20 24 0 10 -5 24 -12 31 -13 13 -50 16 -61 5z m53 -34 c0
-12 -7 -19 -18 -19 -26 0 -33 10 -21 31 12 22 39 14 39 -12z"/>
<path d="M7793 4583 c-46 -4 -60 -23 -18 -23 32 0 31 -7 -2 -42 -32 -33 -23
-51 10 -20 17 16 26 19 34 11 6 -6 20 -8 32 -4 28 9 32 86 4 83 -10 -1 -37 -3
-60 -5z m60 -25 c6 -19 -3 -38 -18 -38 -15 0 -28 27 -19 41 8 13 32 11 37 -3z"/>
<path d="M4331 4386 c-29 -34 10 -93 46 -70 29 18 39 42 27 62 -14 22 -57 27
-73 8z"/>
<path d="M7806 4374 c-19 -18 -20 -28 -6 -55 20 -37 80 -18 80 26 0 42 -44 59
-74 29z"/>
<path d="M4398 4208 c-9 -7 -18 -26 -20 -43 -5 -46 -33 -40 -33 8 0 42 -18 45
-23 3 -4 -34 13 -56 44 -56 18 0 25 7 30 28 12 56 14 59 29 39 7 -10 11 -27 8
-37 -3 -11 0 -20 6 -20 17 0 13 56 -5 74 -19 19 -16 19 -36 4z"/>
<path d="M7756 4208 c-4 -9 -6 -29 -4 -45 3 -26 7 -28 58 -35 30 -3 56 -5 57
-4 1 1 5 21 9 45 5 32 4 42 -4 37 -7 -4 -12 -21 -12 -37 0 -44 -34 -36 -38 9
-4 40 -22 42 -22 2 0 -46 -28 -39 -32 8 -3 27 -6 32 -12 20z"/>
<path d="M4383 4088 c-44 -9 -49 -18 -37 -65 9 -34 22 -28 20 9 -2 45 29 52
39 9 9 -42 22 -39 17 4 -3 27 -1 35 12 35 10 0 16 -9 16 -24 0 -14 5 -28 12
-32 8 -5 9 2 5 26 -4 18 -7 36 -7 41 0 11 -21 10 -77 -3z"/>
<path d="M7753 4092 c-7 -4 -15 -22 -19 -39 -6 -30 -5 -31 45 -42 64 -14 71
-14 71 -1 0 6 -9 10 -20 10 -30 0 -24 23 10 43 39 24 39 42 0 22 -28 -14 -32
-14 -46 0 -17 17 -24 18 -41 7z m35 -40 c3 -17 -2 -22 -17 -22 -14 0 -21 6
-21 18 0 38 33 41 38 4z"/>
<path d="M7710 3959 c-12 -48 -5 -87 7 -40 4 17 11 22 27 18 12 -3 36 -8 54
-12 53 -12 37 10 -18 24 -46 12 -49 15 -44 37 4 13 2 24 -4 24 -5 0 -15 -23
-22 -51z"/>
<path d="M4417 3983 c-58 -15 -58 -16 -51 -47 9 -46 26 -59 22 -17 -3 33 -1
35 41 46 25 6 46 16 49 23 2 7 2 12 0 11 -1 -1 -29 -8 -61 -16z"/>
<path d="M7690 3882 c0 -6 13 -13 30 -17 46 -10 44 -22 -4 -29 -67 -10 -66
-31 5 -55 57 -19 87 -11 32 10 -57 20 -58 22 -8 31 67 12 77 24 34 42 -54 22
-89 30 -89 18z"/>
<path d="M4399 3866 c33 -18 43 -48 22 -63 -9 -6 -13 -14 -9 -18 9 -9 103 63
103 78 0 8 -25 13 -70 14 -64 3 -68 2 -46 -11z m90 -9 c-2 -1 -11 -8 -20 -15
-14 -10 -18 -10 -23 3 -4 11 1 15 21 15 14 0 24 -1 22 -3z"/>
<path d="M4483 3777 c-29 -12 -53 -25 -53 -29 0 -12 22 -9 50 7 41 23 43 17
11 -24 -31 -39 -39 -61 -22 -61 20 0 110 43 106 51 -3 4 -21 1 -40 -7 -49 -20
-50 -19 -14 26 42 52 29 65 -38 37z"/>
<path d="M7636 3744 c-9 -20 -16 -37 -14 -38 11 -8 110 -47 113 -44 11 13 25
50 25 65 -1 13 -6 9 -18 -12 -11 -21 -23 -30 -35 -27 -17 4 -17 12 0 60 3 6 0
12 -6 12 -6 0 -13 -11 -17 -25 -3 -14 -12 -25 -20 -25 -17 0 -17 10 -4 44 15
39 -4 31 -24 -10z"/>
<path d="M7596 3658 c-22 -31 -20 -51 7 -76 44 -41 107 -20 107 36 -1 27 -1
27 -15 -5 -16 -37 -52 -45 -79 -17 -20 19 -20 38 -1 58 17 17 19 26 6 26 -6 0
-17 -10 -25 -22z"/>
<path d="M4511 3643 c-23 -28 -21 -54 6 -85 12 -13 20 -15 39 -6 28 13 29 18
8 44 -15 19 -15 19 -11 -3 7 -32 -21 -38 -35 -8 -9 21 -8 28 7 45 29 32 67 23
81 -19 6 -19 14 -29 18 -23 3 5 3 18 0 29 -21 58 -78 71 -113 26z"/>
<path d="M4601 3547 c-33 -17 -45 -39 -37 -71 15 -59 99 -53 121 8 8 25 6 31
-18 52 -32 28 -34 28 -66 11z m50 -17 c27 -15 24 -46 -7 -67 -48 -31 -89 28
-42 61 27 19 24 19 49 6z"/>
<path d="M7471 3449 c-34 -45 -34 -58 -3 -38 16 10 25 8 54 -14 37 -28 48 -33
48 -18 0 4 -18 21 -40 36 -34 23 -38 30 -29 47 20 38 0 29 -30 -13z"/>
<path d="M4667 3423 c-26 -19 -44 -39 -41 -45 4 -6 10 -6 17 1 24 24 37 12 31
-29 -4 -26 -3 -40 4 -40 6 0 12 12 14 27 2 20 10 29 28 33 31 7 39 49 13 72
-17 14 -22 13 -66 -19z m62 -7 c9 -10 8 -16 -4 -26 -19 -16 -41 1 -32 24 8 20
21 20 36 2z"/>
<path d="M7420 3385 c0 -3 15 -19 33 -35 l32 -30 -30 7 c-43 10 -78 10 -81 -2
-2 -5 19 -27 46 -48 57 -44 65 -39 18 12 -22 23 -27 32 -15 27 40 -13 97 -18
97 -8 0 6 -20 27 -44 46 -41 34 -56 42 -56 31z"/>
<path d="M7325 3270 c-16 -16 -27 -31 -24 -32 2 -2 23 -21 47 -42 l42 -40 25
24 c14 13 25 30 25 38 0 12 -6 10 -23 -7 -15 -13 -30 -19 -40 -15 -22 8 -21
17 3 39 11 10 17 22 14 27 -3 5 -13 0 -21 -11 -15 -23 -43 -28 -43 -9 0 6 7
20 17 30 28 31 8 30 -22 -2z"/>
<path d="M4815 3230 c-40 -41 -42 -70 -2 -32 l24 22 18 -20 c17 -19 17 -21 0
-40 -36 -40 -3 -33 37 8 23 23 39 44 35 48 -4 4 -15 0 -25 -9 -18 -16 -20 -16
-37 3 -17 19 -17 21 0 40 14 16 15 20 4 20 -8 0 -32 -18 -54 -40z"/>
<path d="M7265 3209 c-3 -9 -1 -28 5 -43 9 -24 8 -27 -6 -22 -74 28 -84 10
-26 -47 48 -47 63 -48 28 -2 -30 38 -29 40 8 25 29 -11 31 -5 15 37 l-10 28
35 -34 c20 -19 39 -31 43 -27 4 3 -14 28 -40 53 -35 36 -48 43 -52 32z"/>
<path d="M4922 3154 c-37 -44 -40 -64 -14 -87 27 -25 44 -21 80 16 46 48 40
69 -7 23 -61 -59 -103 -26 -45 35 14 15 24 33 22 40 -2 7 -17 -4 -36 -27z"/>
<path d="M7139 3101 l-23 -18 34 -44 c19 -24 35 -46 37 -48 9 -13 13 10 4 27
-8 15 -7 23 4 32 18 15 19 42 3 58 -17 17 -32 15 -59 -7z m51 -20 c0 -28 -21
-37 -37 -16 -10 15 -10 20 0 27 21 13 37 9 37 -11z"/>
<path d="M5013 3062 c-42 -61 -42 -78 0 -29 l33 38 -4 -36 -4 -37 33 17 33 18
-17 -24 c-52 -74 -37 -84 16 -11 40 53 35 72 -12 47 l-32 -16 3 37 c4 53 -12
51 -49 -4z"/>
<path d="M7035 3027 c-20 -31 -11 -73 21 -93 28 -19 59 -11 80 22 15 22 15 26
-3 56 -25 44 -74 51 -98 15z m82 -23 c20 -32 8 -59 -28 -59 -32 0 -59 46 -40
69 20 24 48 19 68 -10z"/>
<path d="M5140 2974 c-45 -35 -60 -54 -43 -54 5 0 14 5 20 11 17 17 51 -7 55
-38 4 -26 5 -25 15 12 17 56 20 97 8 101 -5 2 -30 -12 -55 -32z m43 -14 c-5
-20 -15 -25 -26 -13 -8 7 11 33 23 33 5 0 6 -9 3 -20z"/>
<path d="M5235 2920 c-33 -64 -27 -92 6 -30 l24 45 3 -57 c2 -32 7 -58 12 -58
8 0 60 90 60 105 0 17 -19 1 -30 -25 -17 -41 -25 -38 -24 10 1 66 -21 70 -51
10z"/>
<path d="M6930 2964 c0 -13 56 -104 63 -104 14 0 67 34 67 42 0 12 -13 10 -38
-8 -21 -14 -23 -13 -49 30 -25 41 -43 58 -43 40z"/>
<path d="M6870 2933 c-14 -9 -27 -18 -29 -20 -6 -4 41 -103 49 -103 18 0 70
23 70 31 0 11 -3 11 -36 -1 -21 -8 -29 -8 -36 2 -12 20 -10 25 22 38 16 7 27
16 24 21 -3 5 -18 2 -33 -6 -27 -14 -41 -11 -41 7 0 5 11 14 25 20 14 6 25 15
25 20 0 12 -13 10 -40 -9z"/>
<path d="M6806 2850 c3 -27 3 -50 0 -50 -3 0 -21 17 -40 37 -19 21 -38 34 -42
30 -10 -9 77 -99 91 -94 5 2 9 17 9 33 -1 16 -2 44 -3 62 -1 17 -6 32 -11 32
-6 0 -8 -19 -4 -50z"/>
<path d="M5455 2810 c-18 -54 -15 -94 4 -47 14 35 19 34 37 -8 8 -19 19 -35
24 -35 13 0 13 7 -1 32 -9 17 -8 23 5 30 22 12 20 55 -3 68 -36 19 -49 11 -66
-40z m63 7 c2 -12 -3 -17 -17 -17 -15 0 -21 6 -21 21 0 25 33 22 38 -4z"/>
<path d="M6665 2848 c-16 -6 -31 -12 -32 -13 -5 -3 29 -99 37 -109 10 -11 82
13 75 24 -3 5 -17 5 -32 -1 -20 -7 -28 -6 -35 3 -13 21 -10 25 22 37 41 14 38
25 -5 17 -27 -5 -35 -4 -35 7 0 8 11 18 25 21 14 4 25 11 25 16 0 12 -6 12
-45 -2z"/>
<path d="M5586 2822 c-11 -19 -34 -112 -28 -116 14 -8 72 -17 72 -12 0 4 -11
11 -25 16 -15 6 -25 17 -25 30 0 11 1 20 3 20 1 0 17 -4 35 -9 41 -12 42 3 1
18 -38 13 -29 35 12 27 16 -3 29 -2 29 3 0 10 -69 31 -74 23z"/>
<path d="M6521 2801 c-11 -7 -11 -17 -1 -61 7 -28 18 -54 24 -56 22 -8 66 15
75 38 9 25 -3 68 -22 80 -16 10 -59 10 -76 -1z m81 -36 c9 -21 8 -28 -7 -45
-27 -30 -43 -24 -54 18 -15 51 -15 52 19 52 23 0 33 -6 42 -25z"/>
<path d="M5681 2771 c-11 -20 6 -41 42 -54 9 -4 17 -11 17 -17 0 -19 -30 -22
-55 -6 -21 14 -25 14 -25 2 0 -16 46 -34 72 -28 9 2 20 13 24 24 6 21 2 26
-43 54 -28 18 -3 40 27 24 25 -13 42 -4 20 10 -26 16 -69 11 -79 -9z"/>
<path d="M5801 2757 c-6 -8 -14 -28 -17 -44 -7 -35 22 -73 56 -73 50 0 79 79
42 113 -22 20 -65 22 -81 4z m76 -23 c11 -29 -10 -69 -36 -69 -33 0 -48 27
-33 59 13 30 59 36 69 10z"/>
<path d="M6313 2763 c-25 -5 -27 -19 -17 -85 6 -36 8 -38 45 -38 22 0 39 5 39
10 0 6 -13 10 -29 10 -17 0 -31 6 -35 16 -9 23 -8 24 17 24 12 0 29 5 37 10
11 7 5 10 -22 10 -27 0 -38 4 -38 15 0 10 10 15 30 15 17 0 30 5 30 10 0 10
-16 11 -57 3z"/>
<path d="M5929 2743 c0 -10 -3 -30 -5 -46 -7 -39 11 -67 44 -67 40 0 52 17 52
74 0 59 -17 52 -22 -9 -3 -35 -6 -40 -28 -40 -24 0 -25 3 -24 53 1 28 -2 52
-7 52 -5 0 -9 -8 -10 -17z"/>
<path d="M6192 2744 c-16 -11 -22 -25 -22 -53 0 -46 18 -63 61 -59 46 4 47 23
2 23 -36 0 -38 2 -41 37 -3 29 1 38 17 43 12 3 30 3 41 0 24 -7 27 10 4 19
-24 9 -38 7 -62 -10z"/>
<path d="M6050 2691 c0 -64 17 -93 22 -39 l3 33 34 -33 c35 -33 56 -37 30 -6
-8 10 -14 36 -14 58 0 40 -1 41 -37 44 l-38 3 0 -60z m60 19 c0 -13 -7 -20
-20 -20 -13 0 -20 7 -20 20 0 13 7 20 20 20 13 0 20 -7 20 -20z"/>
<path d="M4585 2116 c-37 -17 -80 -62 -94 -99 -18 -46 -13 -128 9 -164 24 -39
83 -84 171 -128 105 -53 129 -78 129 -132 0 -36 -6 -50 -30 -75 -29 -28 -35
-30 -91 -26 -88 6 -146 59 -172 156 -6 23 -17 42 -24 42 -10 0 -13 -28 -13
-115 0 -117 7 -136 35 -98 12 16 16 16 67 0 30 -9 84 -17 119 -16 99 1 147 25
191 94 34 52 42 94 28 147 -19 71 -51 102 -170 164 -60 32 -121 68 -135 81
-34 32 -35 90 0 127 21 22 32 26 81 26 56 0 59 -2 105 -49 25 -27 52 -65 59
-85 6 -20 18 -36 26 -36 11 0 14 20 14 100 0 101 -8 120 -35 83 -11 -15 -16
-15 -72 0 -71 20 -157 21 -198 3z"/>
<path d="M7369 2117 c-132 -38 -214 -130 -240 -270 -29 -157 44 -298 190 -365
80 -37 193 -37 271 -1 64 30 146 107 131 122 -7 7 -25 -2 -55 -27 -70 -57
-128 -79 -198 -74 -68 5 -103 26 -135 83 -47 83 -55 260 -17 384 52 174 246
171 346 -5 45 -80 58 -72 58 34 0 91 -7 132 -20 132 -5 0 -11 -9 -15 -19 -9
-30 -30 -32 -92 -10 -75 26 -166 32 -224 16z"/>
<path d="M4987 2114 c-13 -13 -7 -24 14 -24 11 0 29 -5 40 -10 18 -10 19 -24
19 -284 0 -291 0 -291 -49 -298 -14 -1 -26 -9 -29 -16 -3 -10 31 -12 160 -10
102 2 162 7 161 13 -1 6 -16 13 -34 17 -17 3 -35 12 -40 20 -5 7 -9 68 -9 136
l0 122 115 0 115 0 0 -122 c0 -68 -4 -129 -9 -136 -5 -8 -23 -17 -40 -20 -18
-4 -33 -11 -34 -17 -1 -6 59 -11 161 -13 140 -2 162 0 162 13 0 10 -10 15 -29
15 -53 0 -56 12 -59 273 -2 132 -1 251 2 263 8 32 33 54 63 54 15 0 23 5 20
13 -5 15 -323 18 -320 2 2 -5 16 -13 32 -17 47 -13 52 -26 49 -148 l-3 -112
-110 0 -110 0 -3 113 c-3 123 5 145 57 151 14 2 26 8 26 13 0 11 -307 20 -318
9z"/>
<path d="M5730 2105 c0 -7 13 -15 28 -18 48 -10 52 -35 52 -295 0 -262 -4
-283 -55 -292 -17 -3 -30 -10 -30 -15 0 -6 62 -11 158 -13 135 -2 157 0 157
13 0 9 -9 15 -24 15 -44 0 -56 33 -56 152 0 60 3 108 8 108 4 -1 54 -66 112
-145 l105 -144 97 0 c93 -1 132 11 89 27 -17 6 -222 267 -221 281 1 3 23 17
51 29 61 29 99 81 99 135 0 91 -62 147 -182 167 -97 15 -388 12 -388 -5z m368
-48 c58 -61 53 -200 -7 -231 -15 -8 -51 -18 -79 -22 l-52 -7 0 135 c0 74 3
138 7 141 3 4 30 7 58 7 41 0 56 -5 73 -23z"/>
<path d="M6416 2113 c-13 -13 -5 -23 18 -23 54 0 56 -9 56 -295 0 -286 -2
-295 -56 -295 -15 0 -24 -6 -24 -15 0 -22 320 -22 405 0 101 26 171 84 214
175 21 46 26 69 25 140 0 71 -5 94 -28 142 -46 96 -122 147 -248 168 -70 11
-352 13 -362 3z m357 -44 c78 -40 117 -133 117 -280 0 -128 -15 -186 -59 -230
-51 -51 -145 -76 -170 -45 -9 10 -12 90 -11 282 0 146 3 271 6 275 8 13 91 11
117 -2z"/>
</g>
</svg>
